<svg id="Layer_1" data-name="Layer 1" xmlns="http://www.w3.org/2000/svg" viewBox="0 0 1893.7 578.2"><defs><style>.cls-1{fill:#22737f;}.cls-2{fill:#8d4f1b;}.cls-3{fill:#9b1239;}</style></defs><path class="cls-1" d="M959.3,577.9a22.08,22.08,0,0,0,21.8-21.6v-296a21.79,21.79,0,0,0-21.8-21.8l-115.7.2a21.79,21.79,0,0,0-21.8,21.8V556.3a21.79,21.79,0,0,0,21.8,21.8ZM945.4,273.2a19.61,19.61,0,0,1-8.5,16.2l-46.3,31.9a19.66,19.66,0,0,1-31-16.2,20.89,20.89,0,0,1,8.5-16.6L914,257a18.82,18.82,0,0,1,11.7-3.6A20,20,0,0,1,945.4,273.2ZM876.1,543.3V395.7h10.4v144Zm53,0-10.4-3.6v-144h10.4Zm-31.7-5.5V385.5h10.4V537.9H897.4Zm43.9-141.2a38.8,38.8,0,1,0-77.6,0V549.4H837.9V396.6a64.6,64.6,0,1,1,129.2,0V549.4H941.3Zm213.3-.1a60.49,60.49,0,0,0-12.8-12,65.72,65.72,0,0,0-14.8-7.8,81.43,81.43,0,0,0-15.7-4.3,91.19,91.19,0,0,0-15.3-1.3,105.45,105.45,0,0,0-37.5,6.4,86.75,86.75,0,0,0-29.7,18.3,83.4,83.4,0,0,0-19.5,28.8c-4.7,11.3-7,23.9-7,37.8s2.3,26.5,7,37.8a83.4,83.4,0,0,0,19.5,28.8,86.38,86.38,0,0,0,29.7,18.3,105.84,105.84,0,0,0,37.5,6.4,86.72,86.72,0,0,0,34.8-7.4,66.6,66.6,0,0,0,28-22.8l-31.9-23.8a40.21,40.21,0,0,1-15,13.7,42.89,42.89,0,0,1-20.8,4.9,45,45,0,0,1-19.3-4.2,47.11,47.11,0,0,1-15.6-11.7,55.54,55.54,0,0,1-10.4-17.7,67.63,67.63,0,0,1,0-44.7,55.17,55.17,0,0,1,10.5-17.8,48.26,48.26,0,0,1,15.9-11.7,47.47,47.47,0,0,1,20-4.2,45.37,45.37,0,0,1,19,3.7,39.09,39.09,0,0,1,13.9,10.5Zm25,152.6h38.3V474h74.3v75.1h38.3V375.4h-38.3v64.8h-74.3V375.4h-38.3Zm-377-157.7a66.59,66.59,0,0,0-24.8-14,96.85,96.85,0,0,0-28.5-4.2,86,86,0,0,0-24.8,3.6,63.23,63.23,0,0,0-21.2,10.7,52.84,52.84,0,0,0-14.7,17.7c-3.7,7-5.5,15.2-5.5,24.5,0,9.6,2,17.4,6,23.3a46.57,46.57,0,0,0,15.1,14.2,88.32,88.32,0,0,0,19.6,8.6c7,2.1,13.6,4.3,19.6,6.4a54.65,54.65,0,0,1,15.1,7.7,14.73,14.73,0,0,1,6,12.4,14.52,14.52,0,0,1-2.3,8.1,18.21,18.21,0,0,1-6.1,5.6,28.51,28.51,0,0,1-8.6,3.3,43.79,43.79,0,0,1-9.4,1.1,41.48,41.48,0,0,1-18.5-4.3A39.75,39.75,0,0,1,704.8,504l-27.2,29.9a78.74,78.74,0,0,0,27,16.7,97.7,97.7,0,0,0,57,1.8,62.43,62.43,0,0,0,21.3-10.5A51.22,51.22,0,0,0,797.5,524c3.6-7.2,5.4-15.6,5.4-25.3,0-10.1-2-18.2-5.9-24.3a45.51,45.51,0,0,0-14.8-14.5,77.09,77.09,0,0,0-19.3-8.3c-6.9-2-13.3-3.9-19.3-5.9a55.15,55.15,0,0,1-14.8-7.1,13.92,13.92,0,0,1-5.9-12,13.21,13.21,0,0,1,2.5-8.3,18,18,0,0,1,6.4-5.5,34.54,34.54,0,0,1,8.3-3.1,36.66,36.66,0,0,1,8.6-1,44.94,44.94,0,0,1,15.1,2.8,27.5,27.5,0,0,1,12.6,8.7Z"/><path class="cls-2" d="M1871.9,577.9a22.08,22.08,0,0,0,21.8-21.6v-296a21.79,21.79,0,0,0-21.8-21.8l-115.7.2a21.79,21.79,0,0,0-21.8,21.8V556.3a21.79,21.79,0,0,0,21.8,21.8Zm-99.2-304.7a20,20,0,0,1,19.8-19.8,18.82,18.82,0,0,1,11.7,3.6l45.9,31.5a21,21,0,0,1,8.5,16.6,20,20,0,0,1-19.8,19.8,19.72,19.72,0,0,1-11.3-3.6l-46.3-31.9A19.87,19.87,0,0,1,1772.7,273.2Zm4,276.2h-25.8V396.6a64.6,64.6,0,1,1,129.2,0V549.4h-25.8V498.3a38.8,38.8,0,1,0-77.6,0v51.1ZM1854.2,441V396.6a38.8,38.8,0,1,0-77.6,0V441Zm-40.7-42.2h-7.7a1.16,1.16,0,0,1-1.2-1.2v-7.7a1.16,1.16,0,0,1,1.2-1.2h7.7a1.16,1.16,0,0,1,1.2,1.2v7.7A1.22,1.22,0,0,1,1813.5,398.8Zm0,11.3h-7.7a1.16,1.16,0,0,1-1.2-1.2v-7.7a1.16,1.16,0,0,1,1.2-1.2h7.7a1.16,1.16,0,0,1,1.2,1.2v7.7A1.29,1.29,0,0,1,1813.5,410.1Zm11.6,0h-7.7a1.16,1.16,0,0,1-1.2-1.2v-7.7a1.16,1.16,0,0,1,1.2-1.2h7.7a1.16,1.16,0,0,1,1.2,1.2v7.7A1.22,1.22,0,0,1,1825.1,410.1Zm0-11.3h-7.7a1.16,1.16,0,0,1-1.2-1.2v-7.7a1.16,1.16,0,0,1,1.2-1.2h7.7a1.16,1.16,0,0,1,1.2,1.2v7.7A1.16,1.16,0,0,1,1825.1,398.8Zm-460,150.3h38.3V425.4h.5L1479.7,549h50V375.4h-38.3V496.1h-.5l-73.8-120.7h-52Zm199.9,0h38.3V474h74.3v75.1h38.3V375.4h-38.3v64.7h-74.3V375.3H1565Z"/><path class="cls-3" d="M534.6,578.2c23.8,0,43-19.6,43.4-43V43.4A43.36,43.36,0,0,0,534.6,0H43.4A43.36,43.36,0,0,0,0,43.4V534.7a43.36,43.36,0,0,0,43.4,43.4ZM417.2,213.3H403.3a2.22,2.22,0,0,1-2.2-2.2V197.2a2.22,2.22,0,0,1,2.2-2.2h13.9a2.22,2.22,0,0,1,2.2,2.2v13.9A2.22,2.22,0,0,1,417.2,213.3Zm0,20.4H403.3a2.22,2.22,0,0,1-2.2-2.2V217.6a2.22,2.22,0,0,1,2.2-2.2h13.9a2.22,2.22,0,0,1,2.2,2.2v13.9A2.22,2.22,0,0,1,417.2,233.7Zm21.1,0h-14a2.22,2.22,0,0,1-2.2-2.2V217.6a2.22,2.22,0,0,1,2.2-2.2h14a2.22,2.22,0,0,1,2.2,2.2v13.9A2.29,2.29,0,0,1,438.3,233.7Zm0-20.4h-14a2.22,2.22,0,0,1-2.2-2.2V197.2a2.22,2.22,0,0,1,2.2-2.2h14a2.22,2.22,0,0,1,2.2,2.2v13.9A2.29,2.29,0,0,1,438.3,213.3ZM350.6,485.8H303.8V209.3a116.9,116.9,0,0,1,233.8,0V485.8H490.8V393.4c0-39.2-31-70.8-70.1-70.8s-70.2,31.6-70.2,70.8v92.4ZM490.9,289.6V209.3a70.2,70.2,0,1,0-140.4,0v80.3ZM109.3,474.9V207.6h18.9V468.3Zm95.9,0-18.9-6.6V207.6h18.9Zm-57.4-10V189.2h18.9V465H147.8Zm79.6-255.6a70.2,70.2,0,0,0-140.4,0V485.8H40.3V209.3a116.9,116.9,0,0,1,233.8,0V485.8H227.3V209.3Z"/></svg>