<svg xmlns="http://www.w3.org/2000/svg" viewBox="0 0 24 24"><defs><style>.cls-1{fill:#008c9f;}</style></defs><g id="Layer_2" data-name="Layer 2"><g id="Layer_1-2" data-name="Layer 1"><path class="cls-1" d="M21.67,4.84A2.38,2.38,0,0,0,24,2.42,2.38,2.38,0,0,0,21.67,0H3ZM0,2.42A2.38,2.38,0,0,0,2.33,4.84H21L2.33,0A2.38,2.38,0,0,0,0,2.42ZM21.67,24a2.42,2.42,0,0,0,0-4.84H3ZM0,21.58A2.38,2.38,0,0,0,2.33,24H21L2.33,19.16A2.38,2.38,0,0,0,0,21.58Zm21.67-7.16a2.42,2.42,0,0,0,0-4.84H3ZM0,12a2.38,2.38,0,0,0,2.33,2.42H21L2.33,9.58A2.38,2.38,0,0,0,0,12Z"/></g></g></svg>